<?xml version="1.0" standalone="no"?>
<!DOCTYPE svg PUBLIC "-//W3C//DTD SVG 20010904//EN"
 "http://www.w3.org/TR/2001/REC-SVG-20010904/DTD/svg10.dtd">
<svg version="1.0" xmlns="http://www.w3.org/2000/svg"
 width="2000.000000pt" height="2631.000000pt" viewBox="0 0 2000.000000 2631.000000"
 preserveAspectRatio="xMidYMid meet">
<metadata>
Created by potrace 1.16, written by Peter Selinger 2001-2019
</metadata>
<g transform="translate(0.000000,2631.000000) scale(0.100000,-0.100000)"
fill="#000000" stroke="none">
<path d="M0 13155 l0 -13155 10000 0 10000 0 0 13155 0 13155 -10000 0 -10000
0 0 -13155z m9440 7399 c66 -31 85 -57 85 -114 0 -55 -21 -91 -74 -127 -46
-31 -112 -48 -301 -78 -174 -28 -286 -59 -348 -99 -124 -79 -157 -180 -112
-345 22 -78 1357 -3081 1397 -3143 29 -43 79 -70 114 -61 29 7 76 48 94 83 39
75 1222 2882 1252 2970 28 83 36 126 40 207 5 90 3 106 -17 147 -47 99 -130
138 -421 200 -269 58 -335 78 -387 116 -51 37 -72 76 -72 134 0 36 6 50 31 75
16 17 49 36 72 43 33 10 292 13 1207 13 l1165 0 49 -25 c59 -30 86 -74 86
-141 0 -104 -74 -153 -295 -194 -343 -64 -497 -121 -661 -242 -143 -107 -280
-281 -391 -498 -58 -114 -1373 -3183 -1409 -3289 -61 -178 -68 -353 -22 -496
36 -108 1860 -4189 1918 -4290 60 -105 86 -140 153 -208 98 -101 252 -167 467
-202 282 -45 347 -65 395 -121 53 -64 52 -159 -3 -197 -69 -49 -20 -47 -1432
-47 l-1325 0 -50 25 c-89 44 -121 133 -75 208 36 59 115 86 350 122 113 17
228 38 255 47 117 37 190 94 225 175 19 45 22 64 17 133 -3 44 -15 108 -27
143 -12 35 -348 787 -745 1670 -536 1192 -732 1617 -757 1647 -31 35 -40 40
-78 40 -85 0 -51 72 -749 -1626 -349 -849 -649 -1587 -667 -1639 -78 -232 -64
-369 47 -449 62 -46 131 -68 380 -121 244 -53 311 -74 365 -115 100 -76 83
-197 -34 -242 -45 -17 -111 -18 -1277 -18 -1003 0 -1237 2 -1268 13 -48 18
-104 75 -117 121 -19 71 28 150 110 185 19 8 137 35 262 60 336 68 533 137
709 251 151 97 315 298 421 515 55 113 1440 3403 1475 3505 56 162 66 290 34
416 -12 47 -339 784 -904 2034 -487 1079 -902 1994 -922 2035 -112 223 -236
343 -429 415 -40 15 -157 41 -275 61 -232 39 -295 61 -336 122 -62 91 -12 188
107 211 24 5 630 8 1348 8 1304 -2 1305 -2 1350 -23z m7298 -10666 l-3 -23
-6757 -3 -6758 -2 0 25 0 25 6761 0 6760 0 -3 -22z m-4559 -1896 c7 -14 -37
-219 -174 -803 -102 -431 -185 -792 -185 -801 0 -44 31 -7 104 123 125 224
189 315 295 419 145 144 268 197 431 188 59 -4 87 -11 130 -34 97 -53 136
-134 127 -264 -17 -220 -239 -458 -583 -621 -114 -54 -154 -85 -154 -117 0
-22 259 -674 286 -720 32 -55 76 -82 133 -82 85 0 140 87 180 287 10 54 22
125 26 158 11 90 46 130 83 93 29 -29 0 -285 -49 -433 -49 -148 -119 -244
-209 -290 -113 -57 -218 -39 -309 53 -77 77 -116 158 -257 531 -124 326 -148
371 -198 371 -37 0 -76 -39 -106 -106 -59 -131 -143 -426 -205 -719 -27 -126
-25 -125 -156 -125 -91 0 -111 3 -116 16 -3 9 124 572 282 1252 159 681 290
1258 293 1283 4 41 1 49 -20 63 -13 8 -64 20 -113 25 -86 10 -115 24 -115 53
0 24 44 46 126 62 170 33 269 69 360 131 43 30 79 32 93 7z m-6575 -78 c9 -3
16 -17 16 -30 0 -31 -38 -50 -125 -64 -116 -18 -149 -46 -148 -118 2 -53 186
-899 200 -913 4 -4 13 -5 19 -1 14 9 545 816 579 881 27 50 32 93 13 109 -7 6
-51 20 -98 32 -47 12 -91 26 -97 32 -18 14 -16 38 4 60 15 17 40 18 363 18
306 0 349 -2 361 -16 11 -13 11 -20 -2 -42 -12 -23 -30 -31 -114 -53 -55 -14
-113 -31 -129 -38 -52 -21 -124 -81 -174 -144 -72 -92 -644 -965 -658 -1006
-7 -20 -13 -55 -14 -79 0 -48 244 -1186 267 -1245 21 -52 60 -76 154 -95 92
-18 112 -36 84 -78 l-15 -24 -388 0 c-403 0 -412 1 -412 42 0 26 37 45 110 58
135 23 170 49 170 124 -1 22 -47 250 -103 506 -90 411 -104 465 -121 465 -13
0 -96 -121 -308 -450 -159 -247 -300 -471 -314 -497 -47 -91 -31 -114 96 -143
41 -9 80 -21 87 -27 19 -16 16 -56 -6 -68 -13 -6 -152 -10 -386 -10 l-365 0
-12 25 c-19 41 11 60 139 89 136 30 211 66 278 131 33 33 163 222 377 552 180
276 337 522 349 545 14 28 22 61 22 93 -1 60 -238 1166 -259 1207 -21 41 -66
65 -146 78 -93 16 -117 41 -78 80 19 19 33 20 394 20 206 0 381 -3 390 -6z
m1564 -66 c50 -34 72 -80 72 -155 0 -71 -24 -127 -73 -170 -97 -85 -251 -65
-301 40 -20 44 -21 136 0 185 50 120 198 169 302 100z m8612 10 c182 -92 88
-387 -123 -388 -27 0 -65 7 -84 17 -101 47 -124 217 -43 314 62 77 165 100
250 57z m-8835 -749 c53 -15 110 -73 125 -129 24 -89 8 -179 -154 -873 -103
-443 -156 -687 -156 -724 0 -71 17 -93 74 -93 99 0 193 122 300 387 63 156 62
155 99 151 30 -3 32 -5 31 -43 -2 -75 -113 -338 -196 -465 -60 -93 -162 -191
-233 -226 -51 -25 -72 -29 -140 -29 -66 0 -86 4 -117 23 -74 46 -104 139 -87
271 5 40 77 363 160 719 83 356 153 672 155 702 7 75 -9 104 -60 108 -55 5
-89 -13 -145 -73 -55 -61 -111 -164 -171 -315 -23 -58 -48 -115 -56 -127 -18
-29 -70 -32 -79 -5 -11 35 104 332 172 446 99 165 193 252 323 299 26 10 114
7 155 -4z m1687 -22 c34 -17 71 -45 93 -72 49 -60 70 -59 118 5 42 56 88 84
123 76 18 -5 24 -13 24 -33 0 -15 -80 -367 -177 -783 -164 -699 -177 -762
-177 -853 -1 -92 1 -100 23 -118 13 -10 39 -19 58 -19 103 0 180 107 274 384
26 76 54 143 61 148 19 12 49 5 62 -14 23 -38 -71 -372 -141 -498 -52 -94
-140 -181 -216 -216 -86 -39 -190 -40 -261 -4 -137 70 -168 241 -97 534 32
134 37 166 22 166 -13 0 -23 -15 -86 -125 -122 -211 -253 -388 -348 -468 -151
-128 -292 -166 -407 -107 -48 25 -107 90 -132 148 -65 152 -65 444 2 707 109
434 379 853 674 1050 141 94 239 126 367 122 69 -2 96 -8 141 -30z m1336 0
c75 -49 103 -144 83 -278 -7 -41 -34 -171 -61 -289 -60 -262 -59 -254 -40
-257 10 -2 38 42 89 143 129 254 292 478 426 587 203 164 408 168 505 12 30
-49 42 -139 30 -227 -6 -40 -83 -349 -171 -687 -89 -338 -163 -640 -166 -670
-11 -137 103 -177 206 -73 62 63 101 140 160 317 28 82 56 152 63 156 34 22
68 1 68 -41 0 -41 -75 -261 -124 -365 -129 -272 -293 -392 -468 -341 -133 38
-197 173 -169 356 7 41 87 356 178 700 190 712 194 738 135 791 -40 36 -70 37
-140 4 -256 -119 -674 -914 -863 -1640 -22 -88 -46 -166 -51 -172 -7 -9 -45
-13 -125 -13 -97 0 -115 2 -120 17 -3 9 80 379 186 822 128 540 191 824 191
860 0 69 -18 91 -74 91 -98 0 -204 -137 -302 -390 -54 -141 -60 -150 -95 -150
-57 0 -52 40 36 258 109 272 244 440 403 499 61 22 161 13 210 -20z m4272 17
c40 -12 69 -30 115 -75 34 -32 68 -59 76 -59 7 0 38 27 69 59 30 33 67 63 83
66 30 8 57 -8 57 -33 0 -9 -77 -347 -171 -752 -94 -404 -177 -769 -185 -810
-27 -134 3 -210 81 -210 105 0 188 118 276 390 40 124 56 150 91 150 37 0 42
-40 18 -146 -71 -314 -183 -510 -333 -584 -168 -81 -328 -29 -387 126 -31 83
-25 231 19 408 17 70 31 134 31 142 0 38 -32 4 -88 -94 -186 -326 -332 -495
-501 -580 -64 -32 -83 -36 -145 -36 -61 0 -79 4 -126 30 -67 38 -112 100 -143
198 -20 64 -22 91 -22 271 1 169 4 216 24 304 91 423 331 838 616 1068 193
155 385 214 545 167z m1355 -3 c48 -22 89 -67 105 -117 28 -84 10 -185 -154
-887 -86 -369 -156 -688 -156 -715 0 -67 20 -92 74 -92 104 0 210 143 321 433
30 79 42 98 61 103 64 16 67 -13 20 -154 -123 -364 -319 -595 -517 -610 -102
-8 -182 39 -215 123 -34 91 -21 171 145 880 84 358 155 678 158 712 8 85 -10
113 -71 113 -102 0 -196 -120 -302 -385 -53 -134 -67 -155 -100 -155 -44 0
-45 26 -2 149 115 340 278 557 458 612 47 14 134 9 175 -10z"/>
<path d="M12488 6986 c-154 -55 -352 -291 -527 -627 -71 -136 -84 -182 -56
-193 23 -9 180 41 282 89 241 114 410 288 458 470 33 129 13 234 -49 260 -43
18 -60 18 -108 1z"/>
<path d="M8378 7001 c-322 -126 -683 -857 -705 -1427 -7 -180 4 -241 49 -279
38 -32 104 -34 167 -3 189 91 505 601 660 1063 63 188 84 292 85 415 1 104 -1
120 -24 164 -42 83 -127 108 -232 67z"/>
<path d="M14029 7001 c-67 -26 -125 -69 -205 -152 -193 -201 -388 -611 -470
-989 -31 -148 -45 -423 -24 -499 24 -91 107 -118 209 -67 235 119 619 809 727
1306 21 95 23 252 5 305 -35 103 -129 140 -242 96z"/>
</g>
</svg>
